<svg width="250" height="126" viewBox="0 0 250 126" fill="none" xmlns="http://www.w3.org/2000/svg">
<g id="pinit-logo">
<rect id="Rectangle 72" y="8" width="250" height="117" rx="40" fill="#FAFAFA"/>
<path id="Pinit" d="M83.256 51.088C83.256 55.168 82.2 58.912 80.088 62.32C77.976 65.728 74.904 68.512 70.872 70.672C66.84 72.832 62.04 74.104 56.472 74.488L53.376 91.84C52.176 98.512 48.912 101.848 43.584 101.848C40.656 101.848 37.944 100.984 35.448 99.256C33 97.528 31.032 94.888 29.544 91.336C28.056 87.784 27.312 83.416 27.312 78.232C27.312 68.488 28.872 60.232 31.992 53.464C35.16 46.648 39.384 41.56 44.664 38.2C49.992 34.792 55.848 33.088 62.232 33.088C66.744 33.088 70.56 33.88 73.68 35.464C76.848 37.048 79.224 39.208 80.808 41.944C82.44 44.632 83.256 47.68 83.256 51.088ZM57.768 67.072C67.608 65.824 72.528 60.712 72.528 51.736C72.528 48.568 71.472 46 69.36 44.032C67.296 42.016 64.08 41.008 59.712 41.008C54.768 41.008 50.448 42.568 46.752 45.688C43.104 48.808 40.272 53.152 38.256 58.72C36.288 64.24 35.304 70.552 35.304 77.656C35.304 80.632 35.592 83.272 36.168 85.576C36.792 87.88 37.56 89.68 38.472 90.976C39.432 92.224 40.344 92.848 41.208 92.848C42.408 92.848 43.32 91.192 43.944 87.88L46.32 74.272C44.448 73.984 43.632 73.864 43.872 73.912C42.432 73.672 41.496 73.24 41.064 72.616C40.632 71.944 40.416 71.104 40.416 70.096C40.416 69.04 40.704 68.2 41.28 67.576C41.904 66.952 42.744 66.64 43.8 66.64C44.28 66.64 44.64 66.664 44.88 66.712C46.032 66.904 46.92 67.024 47.544 67.072C48.168 63.328 49.056 58.312 50.208 52.024C50.496 50.392 51.144 49.24 52.152 48.568C53.208 47.848 54.432 47.488 55.824 47.488C57.408 47.488 58.536 47.8 59.208 48.424C59.928 49 60.288 49.936 60.288 51.232C60.288 52 60.24 52.624 60.144 53.104L57.768 67.072ZM89.8164 55.696C87.8004 55.696 86.2884 55.24 85.2804 54.328C84.2724 53.368 83.7684 52.048 83.7684 50.368C83.7684 48.688 84.4164 47.296 85.7124 46.192C87.0564 45.04 88.7124 44.464 90.6804 44.464C92.4564 44.464 93.8964 44.896 95.0004 45.76C96.1044 46.624 96.6564 47.848 96.6564 49.432C96.6564 51.352 96.0324 52.888 94.7844 54.04C93.5364 55.144 91.8804 55.696 89.8164 55.696ZM89.2404 94.36C86.1204 94.36 83.8404 93.256 82.4004 91.048C81.0084 88.84 80.3124 85.912 80.3124 82.264C80.3124 80.104 80.5764 77.344 81.1044 73.984C81.6804 70.576 82.4004 67.408 83.2644 64.48C83.6964 62.944 84.2724 61.888 84.9924 61.312C85.7124 60.736 86.8644 60.448 88.4484 60.448C90.8964 60.448 92.1204 61.264 92.1204 62.896C92.1204 64.096 91.6644 66.88 90.7524 71.248C89.6004 76.528 89.0244 80.104 89.0244 81.976C89.0244 83.416 89.2164 84.52 89.6004 85.288C89.9844 86.056 90.6324 86.44 91.5444 86.44C92.4084 86.44 93.4884 85.84 94.7844 84.64C96.0804 83.44 97.8084 81.544 99.9684 78.952C100.544 78.28 101.192 77.944 101.912 77.944C102.536 77.944 103.016 78.232 103.352 78.808C103.736 79.384 103.928 80.176 103.928 81.184C103.928 83.104 103.472 84.592 102.56 85.648C97.8084 91.456 93.3684 94.36 89.2404 94.36ZM102.495 94.36C100.671 94.36 99.3752 93.4 98.6072 91.48C97.8872 89.56 97.5272 86.488 97.5272 82.264C97.5272 76.024 98.4152 70.096 100.191 64.48C100.623 63.088 101.319 62.08 102.279 61.456C103.287 60.784 104.679 60.448 106.455 60.448C107.415 60.448 108.087 60.568 108.471 60.808C108.855 61.048 109.047 61.504 109.047 62.176C109.047 62.944 108.687 64.672 107.967 67.36C107.487 69.28 107.103 70.96 106.815 72.4C106.527 73.84 106.287 75.616 106.095 77.728C107.679 73.6 109.455 70.24 111.423 67.648C113.391 65.056 115.311 63.208 117.183 62.104C119.103 61 120.855 60.448 122.439 60.448C125.559 60.448 127.119 62.008 127.119 65.128C127.119 67 126.591 70.384 125.535 75.28C124.623 79.456 124.167 82.216 124.167 83.56C124.167 85.48 124.863 86.44 126.255 86.44C127.215 86.44 128.343 85.864 129.639 84.712C130.983 83.512 132.759 81.592 134.967 78.952C135.543 78.28 136.191 77.944 136.911 77.944C137.535 77.944 138.015 78.232 138.351 78.808C138.735 79.384 138.927 80.176 138.927 81.184C138.927 83.104 138.471 84.592 137.559 85.648C135.495 88.192 133.263 90.28 130.863 91.912C128.511 93.544 125.823 94.36 122.799 94.36C120.351 94.36 118.503 93.664 117.255 92.272C116.007 90.832 115.383 88.768 115.383 86.08C115.383 84.736 115.719 82.336 116.391 78.88C117.015 75.856 117.327 73.768 117.327 72.616C117.327 71.848 117.063 71.464 116.535 71.464C115.911 71.464 115.023 72.28 113.871 73.912C112.767 75.496 111.615 77.608 110.415 80.248C109.263 82.888 108.327 85.672 107.607 88.6C107.079 90.856 106.455 92.392 105.735 93.208C105.063 93.976 103.983 94.36 102.495 94.36ZM141.814 55.696C139.798 55.696 138.286 55.24 137.278 54.328C136.27 53.368 135.766 52.048 135.766 50.368C135.766 48.688 136.414 47.296 137.71 46.192C139.054 45.04 140.71 44.464 142.678 44.464C144.454 44.464 145.894 44.896 146.998 45.76C148.102 46.624 148.654 47.848 148.654 49.432C148.654 51.352 148.03 52.888 146.782 54.04C145.534 55.144 143.878 55.696 141.814 55.696ZM141.238 94.36C138.118 94.36 135.838 93.256 134.398 91.048C133.006 88.84 132.31 85.912 132.31 82.264C132.31 80.104 132.574 77.344 133.102 73.984C133.678 70.576 134.398 67.408 135.262 64.48C135.694 62.944 136.27 61.888 136.99 61.312C137.71 60.736 138.862 60.448 140.446 60.448C142.894 60.448 144.118 61.264 144.118 62.896C144.118 64.096 143.662 66.88 142.75 71.248C141.598 76.528 141.022 80.104 141.022 81.976C141.022 83.416 141.214 84.52 141.598 85.288C141.982 86.056 142.63 86.44 143.542 86.44C144.406 86.44 145.486 85.84 146.782 84.64C148.078 83.44 149.806 81.544 151.966 78.952C152.542 78.28 153.19 77.944 153.91 77.944C154.534 77.944 155.014 78.232 155.35 78.808C155.734 79.384 155.926 80.176 155.926 81.184C155.926 83.104 155.47 84.592 154.558 85.648C149.806 91.456 145.366 94.36 141.238 94.36ZM161.261 67.288C161.165 69.688 161.117 71.56 161.117 72.904C161.117 76.36 161.285 79.072 161.621 81.04C162.005 82.96 162.605 84.352 163.421 85.216C164.285 86.032 165.461 86.44 166.949 86.44C167.717 86.44 168.629 86.2 169.685 85.72C170.741 85.24 171.701 84.616 172.565 83.848C173.093 83.368 173.621 83.128 174.149 83.128C174.725 83.128 175.181 83.464 175.517 84.136C175.901 84.76 176.093 85.528 176.093 86.44C176.093 87.352 175.901 88.24 175.517 89.104C175.181 89.968 174.653 90.688 173.933 91.264C171.437 93.328 168.605 94.36 165.437 94.36C160.877 94.36 157.541 92.464 155.429 88.672C153.317 84.832 152.261 79.84 152.261 73.696C152.261 71.584 152.333 69.448 152.477 67.288H149.669C148.229 67.288 147.245 67.024 146.717 66.496C146.237 65.968 145.997 65.128 145.997 63.976C145.997 61.288 147.077 59.944 149.237 59.944H153.341C154.157 54.664 155.405 49.84 157.085 45.472C158.765 41.104 160.781 37.624 163.133 35.032C165.533 32.44 168.101 31.144 170.837 31.144C172.853 31.144 174.437 32.032 175.589 33.808C176.741 35.584 177.317 37.816 177.317 40.504C177.317 47.944 174.197 54.424 167.957 59.944H176.021C176.789 59.944 177.341 60.112 177.677 60.448C178.013 60.784 178.181 61.408 178.181 62.32C178.181 65.632 175.469 67.288 170.045 67.288H161.261ZM168.893 38.056C168.173 38.056 167.357 38.968 166.445 40.792C165.581 42.568 164.741 45.064 163.925 48.28C163.157 51.448 162.509 54.976 161.981 58.864C164.813 56.416 166.925 53.68 168.317 50.656C169.757 47.584 170.477 44.8 170.477 42.304C170.477 39.472 169.949 38.056 168.893 38.056Z" fill="#FF0000" fill-opacity="0.71"/>
<path id="Vector" d="M213.37 36C213.643 35.9995 213.913 36.0528 214.165 36.1568C214.417 36.2608 214.646 36.4135 214.84 36.6062L235.392 57.1593C235.781 57.5487 236 58.0766 236 58.6271C236 59.1776 235.781 59.7056 235.392 60.0949C233.399 62.0879 230.941 62.5364 229.152 62.5364C228.417 62.5364 227.761 62.4616 227.242 62.3744L214.229 75.3873C214.572 76.7675 214.794 78.1748 214.894 79.5934C215.085 82.5082 214.761 86.5981 211.904 89.4547C211.515 89.8439 210.987 90.0626 210.436 90.0626C209.886 90.0626 209.358 89.8439 208.969 89.4547L197.223 77.7125L184.011 90.9246C183.201 91.7343 178.949 94.6698 178.14 93.8602C177.33 93.0505 180.266 88.7945 181.075 87.989L194.287 74.7769L182.545 63.0305C182.156 62.6412 181.937 62.1132 181.937 61.5627C181.937 61.0122 182.156 60.4842 182.545 60.0949C185.402 57.2382 189.491 56.9102 192.406 57.1054C193.825 57.2048 195.232 57.427 196.612 57.7697L209.625 44.761C209.516 44.1287 209.461 43.4885 209.459 42.8469C209.459 41.0615 209.907 38.6034 211.904 36.6062C212.293 36.2181 212.82 36.0001 213.37 36V36Z" fill="#FF0000" fill-opacity="0.71"/>
<rect id="Rectangle 73" x="56" y="97" width="120" height="3" rx="1.5" fill="#FF0000" fill-opacity="0.71"/>
<rect id="Rectangle 74" x="211.986" y="46.9657" width="2" height="18" rx="1" transform="rotate(45 211.986 46.9657)" fill="white"/>
</g>
</svg>
