<svg id="visual" viewBox="0 0 960 540" width="960" height="540" xmlns="http://www.w3.org/2000/svg" xmlns:xlink="http://www.w3.org/1999/xlink" version="1.1"><path d="M0 60L20 66.3C40 72.7 80 85.3 120 86.3C160 87.3 200 76.7 240 82.2C280 87.7 320 109.3 360 113.8C400 118.3 440 105.7 480 102.8C520 100 560 107 600 113.3C640 119.7 680 125.3 720 122.7C760 120 800 109 840 98.2C880 87.3 920 76.7 940 71.3L960 66L960 0L940 0C920 0 880 0 840 0C800 0 760 0 720 0C680 0 640 0 600 0C560 0 520 0 480 0C440 0 400 0 360 0C320 0 280 0 240 0C200 0 160 0 120 0C80 0 40 0 20 0L0 0Z" fill="#f4aef6"></path><path d="M0 141L20 141C40 141 80 141 120 143.8C160 146.7 200 152.3 240 156.8C280 161.3 320 164.7 360 161.8C400 159 440 150 480 155.5C520 161 560 181 600 188.3C640 195.7 680 190.3 720 182.2C760 174 800 163 840 154C880 145 920 138 940 134.5L960 131L960 64L940 69.3C920 74.7 880 85.3 840 96.2C800 107 760 118 720 120.7C680 123.3 640 117.7 600 111.3C560 105 520 98 480 100.8C440 103.7 400 116.3 360 111.8C320 107.3 280 85.7 240 80.2C200 74.7 160 85.3 120 84.3C80 83.3 40 70.7 20 64.3L0 58Z" fill="#d9adfa"></path><path d="M0 239L20 242.5C40 246 80 253 120 271C160 289 200 318 240 328C280 338 320 329 360 314.5C400 300 440 280 480 294.3C520 308.7 560 357.3 600 360C640 362.7 680 319.3 720 293.2C760 267 800 258 840 259C880 260 920 271 940 276.5L960 282L960 129L940 132.5C920 136 880 143 840 152C800 161 760 172 720 180.2C680 188.3 640 193.7 600 186.3C560 179 520 159 480 153.5C440 148 400 157 360 159.8C320 162.7 280 159.3 240 154.8C200 150.3 160 144.7 120 141.8C80 139 40 139 20 139L0 139Z" fill="#bbacfb"></path><path d="M0 341L20 345.5C40 350 80 359 120 369.8C160 380.7 200 393.3 240 397C280 400.7 320 395.3 360 381.8C400 368.3 440 346.7 480 357.5C520 368.3 560 411.7 600 418.8C640 426 680 397 720 372.7C760 348.3 800 328.7 840 332.3C880 336 920 363 940 376.5L960 390L960 280L940 274.5C920 269 880 258 840 257C800 256 760 265 720 291.2C680 317.3 640 360.7 600 358C560 355.3 520 306.7 480 292.3C440 278 400 298 360 312.5C320 327 280 336 240 326C200 316 160 287 120 269C80 251 40 244 20 240.5L0 237Z" fill="#9babf8"></path><path d="M0 541L20 541C40 541 80 541 120 541C160 541 200 541 240 541C280 541 320 541 360 541C400 541 440 541 480 541C520 541 560 541 600 541C640 541 680 541 720 541C760 541 800 541 840 541C880 541 920 541 940 541L960 541L960 388L940 374.5C920 361 880 334 840 330.3C800 326.7 760 346.3 720 370.7C680 395 640 424 600 416.8C560 409.7 520 366.3 480 355.5C440 344.7 400 366.3 360 379.8C320 393.3 280 398.7 240 395C200 391.3 160 378.7 120 367.8C80 357 40 348 20 343.5L0 339Z" fill="#7aa9f1"></path></svg>