<svg width="303" height="466" viewBox="0 0 303 466" fill="none" xmlns="http://www.w3.org/2000/svg">
<g filter="url(#filter0_d_111_87)">
<ellipse cx="151" cy="433.5" rx="116" ry="17.5" fill="#3A3335" fill-opacity="0.5" shape-rendering="crispEdges"/>
</g>
<path d="M135.929 395.924C21.2773 229.642 0 212.59 0 151.501C0 67.8221 67.8215 0 151.5 0C235.179 0 303 67.8221 303 151.501C303 212.59 281.723 229.609 167.071 395.856C165.33 398.364 163.009 400.414 160.305 401.832C157.602 403.249 154.596 403.993 151.543 404C148.49 404.007 145.481 403.276 142.771 401.87C140.062 400.463 137.732 398.424 135.98 395.924L135.946 395.856L135.929 395.924ZM151.5 214.627C168.242 214.627 184.298 207.976 196.136 196.138C207.974 184.3 214.625 168.243 214.625 151.501C214.625 134.759 207.974 118.703 196.136 106.865C184.298 95.0265 168.242 88.3758 151.5 88.3758C134.758 88.3758 118.702 95.0265 106.864 106.865C95.0257 118.703 88.375 134.759 88.375 151.501C88.375 168.243 95.0257 184.3 106.864 196.138C118.702 207.976 134.758 214.627 151.5 214.627V214.627Z" fill="#FC4647"/>
<defs>
<filter id="filter0_d_111_87" x="20" y="401" width="262" height="65" filterUnits="userSpaceOnUse" color-interpolation-filters="sRGB">
<feFlood flood-opacity="0" result="BackgroundImageFix"/>
<feColorMatrix in="SourceAlpha" type="matrix" values="0 0 0 0 0 0 0 0 0 0 0 0 0 0 0 0 0 0 127 0" result="hardAlpha"/>
<feMorphology radius="5" operator="dilate" in="SourceAlpha" result="effect1_dropShadow_111_87"/>
<feOffset/>
<feGaussianBlur stdDeviation="5"/>
<feComposite in2="hardAlpha" operator="out"/>
<feColorMatrix type="matrix" values="0 0 0 0 0.227451 0 0 0 0 0.2 0 0 0 0 0.207843 0 0 0 0.5 0"/>
<feBlend mode="normal" in2="BackgroundImageFix" result="effect1_dropShadow_111_87"/>
<feBlend mode="normal" in="SourceGraphic" in2="effect1_dropShadow_111_87" result="shape"/>
</filter>
</defs>
</svg>
